<?xml version="1.0" encoding="UTF-8" standalone="no"?>
<!-- Created with Inkscape (http://www.inkscape.org/) -->

<svg
   width="327.41635mm"
   height="85.58802mm"
   viewBox="0 0 327.41635 85.58802"
   version="1.1"
   id="svg1"
   xml:space="preserve"
   xmlns="http://www.w3.org/2000/svg"
   xmlns:svg="http://www.w3.org/2000/svg"><defs
     id="defs1"><rect
       x="939.07996"
       y="362.47644"
       width="1363.1354"
       height="453.44547"
       id="rect3-0-5" /><filter
       style="color-interpolation-filters:sRGB"
       id="filter933-5"
       x="0"
       y="0"
       width="1"
       height="1"><feColorMatrix
         values="-1 0 0 0 1 0 -1 0 0 1 0 0 -1 0 1 0.21 0.72 0.07 1 0 "
         result="color2"
         id="feColorMatrix933-6" /></filter><filter
       style="color-interpolation-filters:sRGB"
       id="filter2"
       x="0"
       y="0"
       width="1"
       height="1"><feColorMatrix
         values="-1 0 0 0 1 0 -1 0 0 1 0 0 -1 0 1 0.21 0.72 0.07 1 0 "
         result="color2"
         id="feColorMatrix2" /></filter></defs><g
     id="layer1"
     transform="translate(-366.03229,-18.199922)"><g
       id="g53"><path
         id="text1-0-7"
         style="font-weight:bold;font-size:333.333px;white-space:pre;fill:#000000;stroke-width:0.308937;filter:url(#filter2)"
         d="m 58.497992,65.493782 a 8.5557333,8.5557333 0 0 0 -7.278278,4.071343 L 39.862471,87.97963 a 11.545221,11.545221 0 0 1 -3.862762,3.825057 l -0.730034,0.440427 a 25.292399,25.292399 0 0 0 -9.157915,9.580296 l -5.326039,9.8017 c 0.248596,0.0157 0.496019,0.0312 0.728831,0.0453 1.28e-4,1e-5 2.73e-4,-1e-5 4.01e-4,0 l 0.01845,-0.0221 6.440744,0.31568 c 1.120191,0.0194 2.243928,-0.0222 3.365376,-0.0189 2.112436,0.0101 4.224672,0.0187 6.340466,-0.0533 l 6.191249,-0.40072 c 1.726336,-0.12433 3.452184,-0.23654 5.178027,-0.41355 0.646213,-0.0677 1.292611,-0.12805 1.938601,-0.20337 4.748565,-0.55365 9.482992,-1.45243 14.224431,-2.18168 0.955058,-0.14688 1.910903,-0.28423 2.866787,-0.41957 2.862958,-0.51987 5.717466,-1.08589 8.5783,-1.6177 0.674267,-0.12534 1.53708,-0.28596 2.42997,-0.45206 l 0.0072,-0.001 4.190475,-0.8644 L 64.562867,69.183 A 6.8294169,6.8294169 0 0 0 58.49797,65.493922 Z m 0.400716,8.007108 a 1.4978995,1.4978995 0 0 1 1.302429,0.835528 l 9.931671,20.170598 a 0.40955968,0.40955968 0 0 1 -0.589242,0.524662 l -2.638952,-1.702744 a 0.59017599,0.59017599 0 0 0 -0.894091,0.633364 l 1.950634,8.153512 a 0.54227986,0.54227986 0 0 1 -0.910135,0.51063 L 58.42178,94.028483 a 2.9567343,2.9567343 0 0 0 -1.841531,-0.851974 l -6.733561,-0.560361 a 1.6157211,1.6157211 0 0 1 -1.273949,-2.402694 l 8.979418,-15.950039 a 1.4978995,1.4978995 0 0 1 1.346551,-0.762525 z m 24.791873,32.62209 c -0.101391,0.0213 -0.236172,0.0493 -0.400716,0.0838 -0.09805,0.46544 -0.311626,0.43824 -0.317685,1.50219 -0.0029,0.50035 0.161457,1.33456 0.372237,2.23021 0.210787,0.89566 0.465914,1.86814 0.638178,2.72439 0.162166,0.80604 0.507103,1.81059 0.768942,2.75327 0.261886,0.94269 0.479638,1.80803 0.230242,2.50659 -0.09752,0.27306 -0.179259,0.46316 -0.277574,0.6117 -0.09832,0.14856 -0.228555,0.25973 -0.356994,0.29763 -0.25691,0.0758 -0.376139,-0.0175 -0.525063,0.0104 -0.289627,0.0543 -0.50948,-0.0704 -0.707973,-0.18291 -0.198476,-0.11255 -0.412,-0.23225 -0.802636,-0.29843 -0.818164,-0.13859 -2.550224,-0.26698 -3.558715,-0.0493 -1.035557,0.22348 -1.721305,0.65071 -2.629727,1.19694 -0.414589,0.24929 -0.919607,0.71611 -1.401905,1.14238 -0.482306,0.42627 -0.921674,0.8237 -1.350964,0.94142 -0.313434,0.0859 -0.388009,0.16393 -0.584429,0.11753 -0.09823,-0.0232 -0.154516,-0.0807 -0.197751,-0.12114 -0.04321,-0.0406 -0.09194,-0.0831 -0.18331,-0.15122 -0.280453,-0.20918 -0.496298,-0.60348 -0.707171,-1.02606 -0.210872,-0.42256 -0.393691,-0.87175 -0.507413,-1.17808 -0.234253,-0.63105 -0.235142,-1.00196 -0.3229,-1.41996 -0.09144,-0.4356 -0.225616,-0.89337 -0.264737,-1.37944 -0.03811,-0.47445 0.0087,-0.8144 0.03249,-1.30323 0.02598,-0.53344 0.127774,-1.341 0.122341,-1.74446 -0.0061,-0.45131 -0.02483,-0.59811 -0.09065,-0.92899 -0.06423,-0.32293 -0.148874,-0.6311 -0.29803,-0.97632 -0.06172,-0.14281 -0.184416,-0.32419 -0.311668,-0.51664 -0.12726,-0.19243 -0.264111,-0.39095 -0.344961,-0.62574 -0.124241,-0.36113 -0.216735,-0.67556 -0.158442,-1.12032 0.01203,-0.0918 0.03362,-0.17819 0.06137,-0.25953 -0.685927,0.12863 -1.329665,0.24648 -1.911325,0.34897 -0.534642,0.0942 -1.069685,0.18841 -1.60447,0.28199 -0.09725,0.22195 -0.205377,0.4213 -0.209785,1.18209 -0.0029,0.50036 0.155834,1.33256 0.366622,2.22821 0.210779,0.89566 0.465913,1.86814 0.638178,2.72439 0.162173,0.80604 0.505491,1.81741 0.767338,2.76009 0.261831,0.94268 0.484883,1.80964 0.235456,2.50819 -0.09752,0.27306 -0.179251,0.46316 -0.277574,0.6117 -0.09831,0.14856 -0.233777,0.25773 -0.362209,0.29563 -0.256949,0.0759 -0.368919,-0.0219 -0.517843,0.006 -0.289627,0.0543 -0.509488,-0.0704 -0.707972,-0.18291 -0.198485,-0.11255 -0.412402,-0.23226 -0.803038,-0.29844 -0.818156,-0.13858 -2.551828,-0.26055 -3.560319,-0.0429 -1.035557,0.22348 -1.721305,0.65072 -2.629727,1.19694 -0.414589,0.24929 -0.92321,0.70769 -1.405516,1.13396 -0.482305,0.42627 -0.916451,0.82531 -1.345749,0.94303 -0.313418,0.0858 -0.389621,0.17074 -0.586033,0.12434 -0.09824,-0.0232 -0.15251,-0.0871 -0.195745,-0.12755 -0.04321,-0.0406 -0.09193,-0.0835 -0.183311,-0.15163 -0.280444,-0.20918 -0.496297,-0.60308 -0.70717,-1.02565 -0.210873,-0.42257 -0.393691,-0.87175 -0.507414,-1.17809 -0.234252,-0.63105 -0.235542,-1.00196 -0.323301,-1.41995 -0.09144,-0.4356 -0.230831,-0.89538 -0.269952,-1.38145 -0.03811,-0.47444 0.01388,-0.8124 0.03771,-1.30123 0.02599,-0.53344 0.128176,-1.341 0.122742,-1.74446 -0.0061,-0.45131 -0.02523,-0.59851 -0.09105,-0.92939 -0.06423,-0.32293 -0.150479,-0.62428 -0.299635,-0.9695 -0.06172,-0.14282 -0.182812,-0.33061 -0.310064,-0.52305 -0.127252,-0.19244 -0.26371,-0.39135 -0.34456,-0.62615 -0.12431,-0.36113 -0.223955,-0.67034 -0.165662,-1.11511 0.03292,-0.25113 0.139888,-0.48999 0.249094,-0.71318 -0.791233,0.0636 -1.582838,0.0815 -2.374214,0.13999 -0.0038,2.8e-4 -0.0074,5.2e-4 -0.01123,8e-4 -0.01428,0.0534 -0.03132,0.11505 -0.05094,0.18572 -0.136783,0.49216 -0.353794,0.411 -0.454065,1.50218 -0.04601,0.50078 0.04193,1.35448 0.172882,2.27715 0.130947,0.92266 0.300401,1.92128 0.396705,2.7998 0.09065,0.827 0.342508,1.87838 0.519849,2.85435 0.17734,0.97598 0.323959,1.87301 0.01725,2.54228 -0.119901,0.26162 -0.222569,0.44281 -0.332527,0.57962 -0.10995,0.13681 -0.249287,0.23278 -0.379457,0.25511 -0.260356,0.0447 -0.367889,-0.0673 -0.517442,-0.0574 -0.290838,0.0192 -0.492693,-0.12787 -0.679092,-0.26474 -0.186391,-0.13686 -0.387921,-0.28567 -0.76814,-0.39951 -0.796376,-0.23833 -2.496225,-0.57864 -3.511383,-0.48335 -1.042411,0.0978 -1.758877,0.44792 -2.703532,0.88447 -0.43113,0.19923 -0.972432,0.59884 -1.48574,0.96709 -0.513299,0.36825 -0.976032,0.7157 -1.410329,0.78138 -0.317066,0.0479 -0.402334,0.11516 -0.592451,0.0449 -0.09505,-0.0352 -0.146117,-0.0993 -0.185316,-0.1452 -0.03921,-0.0459 -0.08085,-0.0943 -0.16526,-0.17369 -0.259022,-0.24362 -0.440639,-0.66544 -0.612507,-1.1143 -0.171868,-0.44887 -0.311188,-0.91962 -0.397106,-1.24026 -0.176999,-0.66051 -0.144736,-1.03276 -0.195345,-1.46207 -0.05273,-0.44739 -0.147106,-0.92558 -0.144001,-1.41715 0.0033,-0.47981 0.08026,-0.80773 0.146007,-1.2944 0.07171,-0.53111 0.242138,-1.33291 0.271557,-1.73765 0.03299,-0.45275 0.02405,-0.59929 -0.01244,-0.93861 -0.03559,-0.33125 -0.09499,-0.64735 -0.212592,-1.01122 -0.04865,-0.15053 -0.151191,-0.34815 -0.260326,-0.55635 -0.109127,-0.20821 -0.226384,-0.42484 -0.285996,-0.66986 -0.09167,-0.37682 -0.162062,-0.7004 -0.06619,-1.13878 0.03443,-0.15723 0.09777,-0.30818 0.171678,-0.45166 -0.649238,0.0313 -1.298381,0.0544 -1.947024,0.067 -0.02021,0.0578 -0.04505,0.12675 -0.07501,0.20858 -0.164883,0.45046 -0.384345,0.36804 -0.573197,1.46007 -0.08826,0.51017 -0.0689,1.37467 -0.01364,2.31485 0.05526,0.94018 0.142414,1.96479 0.166865,2.85315 0.02322,0.84498 0.188209,1.9273 0.284793,2.92294 0.09658,0.99564 0.163017,1.89573 -0.181706,2.50899 -0.138709,0.24676 -0.250822,0.41294 -0.36983,0.5367 -0.119001,0.12375 -0.272142,0.21093 -0.424784,0.21981 -0.152642,0.009 -0.257829,-0.0408 -0.331724,-0.0682 -0.07391,-0.0274 -0.122624,-0.0441 -0.183712,-0.0469 -0.317361,-0.0151 -0.528706,-0.20564 -0.701956,-0.36381 -0.17325,-0.15817 -0.350212,-0.32038 -0.706368,-0.47292 -0.759777,-0.32542 -2.418369,-0.85273 -3.405087,-0.87203 -1.024309,-0.0201 -1.747935,0.24136 -2.717972,0.57159 -0.432202,0.14714 -1.002487,0.48535 -1.540292,0.79622 -0.537812,0.31087 -1.013605,0.61255 -1.488948,0.63056 -0.157283,0.006 -0.256646,0.0143 -0.339747,0.0181 -0.08311,0.004 -0.173746,0.0131 -0.286398,-0.0437 -0.112651,-0.0568 -0.157374,-0.13598 -0.192536,-0.18652 -0.03516,-0.0505 -0.07258,-0.10489 -0.148413,-0.19254 -0.246952,-0.28544 -0.383572,-0.71624 -0.517041,-1.1841 -0.133477,-0.46786 -0.235105,-0.95904 -0.294019,-1.28879 -0.120934,-0.67685 -0.06013,-1.03631 -0.07581,-1.47812 -0.01622,-0.45711 -0.07095,-0.94543 -0.02888,-1.42798 0.04127,-0.47302 0.143858,-0.7906 0.248693,-1.27355 0.112504,-0.51831 0.344119,-1.29845 0.407535,-1.71156 0.06978,-0.45157 0.07696,-0.60759 0.06819,-0.95346 -0.0086,-0.33901 -0.04281,-0.66749 -0.130363,-1.04772 -0.07414,-0.32196 -0.364837,-0.80001 -0.440828,-1.28879 -0.06034,-0.38784 -0.102665,-0.70361 0.02407,-1.12032 0.0423,-0.13903 0.112083,-0.27409 0.192537,-0.40353 -0.095,-0.004 -0.190197,-0.009 -0.285195,-0.0132 -0.06196,-0.003 -0.128618,-0.006 -0.199355,-0.01 -0.02575,-0.001 -0.05167,-0.002 -0.07742,-0.004 l -8.637265,15.89549 a 2.2539887,2.2539887 0 0 0 1.989945,3.33048 l 22.426482,-0.0943 h 12.047967 30.882442 14.114926 a 2.2832451,2.2832451 0 0 0 2.027649,-3.33328 z m -0.985545,0.20657 c -2.446768,0.5113 -8.127949,1.68863 -12.462322,2.5118 -0.09796,0.16261 -0.185029,0.36161 -0.194542,0.43481 -0.04151,0.31674 0.0084,0.442 0.132369,0.80224 0.04334,0.12584 0.152275,0.30995 0.276771,0.49819 0.124489,0.18822 0.264393,0.3875 0.360605,0.6101 0.166629,0.38563 0.26849,0.73665 0.339746,1.09505 0.0697,0.35051 0.09608,0.58226 0.102285,1.05253 0.007,0.51812 -0.0964,1.32001 -0.119533,1.7946 -0.0253,0.51919 -0.07249,0.81099 -0.04051,1.20937 0.03109,0.38678 0.161493,0.82465 0.259924,1.2936 0.10215,0.48658 0.08262,0.77303 0.290008,1.33171 0.107102,0.28853 0.286322,0.7263 0.483347,1.12113 0.197025,0.39483 0.43977,0.74617 0.562768,0.83793 0.107653,0.0803 0.174697,0.14932 0.215801,0.18813 0.03924,-0.0144 0.162169,-0.0388 0.379458,-0.0983 0.213224,-0.0585 0.669754,-0.41185 1.146394,-0.83312 0.476639,-0.42127 0.995389,-0.90273 1.487343,-1.19854 0.904665,-0.54396 1.662103,-1.0148 2.773728,-1.25469 1.138716,-0.24575 2.847931,-0.10218 3.716355,0.0449 0.452654,0.0767 0.740032,0.23675 0.939417,0.34978 0.199408,0.11289 0.275916,0.15796 0.420772,0.13076 0.285607,-0.0538 0.462065,0.009 0.480539,0.003 0.0092,-0.003 0.01217,0.006 0.05936,-0.065 0.04716,-0.0713 0.119382,-0.22062 0.206977,-0.4661 0.120864,-0.33851 0.0036,-1.16903 -0.250698,-2.08461 -0.25431,-0.91557 -0.601381,-1.92868 -0.777767,-2.80541 -0.166288,-0.82651 -0.42455,-1.79578 -0.638178,-2.70354 -0.213629,-0.90775 -0.39096,-1.73902 -0.387079,-2.38263 0.0046,-0.79699 0.137904,-1.19011 0.23666,-1.41796 z m -17.175453,3.36057 c -4.068415,0.70865 -8.141164,1.37843 -12.220448,1.82669 -0.02717,0.0489 -0.0606,0.1114 -0.103889,0.19895 -0.117301,0.23735 -0.230024,0.54484 -0.24027,0.62414 -0.04151,0.31674 0.0068,0.44842 0.130765,0.80865 0.04333,0.12587 0.153879,0.30354 0.278375,0.49177 0.124489,0.18823 0.264402,0.38747 0.360605,0.6101 0.166637,0.38563 0.266886,0.74307 0.338142,1.10147 0.0697,0.35051 0.09607,0.58187 0.102285,1.05213 0.007,0.51813 -0.0948,1.3136 -0.117928,1.78819 -0.02531,0.5192 -0.07249,0.81098 -0.04051,1.20936 0.0311,0.38678 0.154674,0.82947 0.253105,1.29842 0.102149,0.48658 0.08984,0.76822 0.297228,1.3269 0.107101,0.28853 0.28592,0.72629 0.482945,1.12112 0.197034,0.39482 0.432951,0.75099 0.555949,0.84275 0.108751,0.0811 0.182626,0.14608 0.223824,0.18451 0.04054,-0.0126 0.162533,-0.0344 0.376649,-0.093 0.213225,-0.0585 0.671359,-0.41787 1.147999,-0.83914 0.476647,-0.42127 0.988571,-0.89832 1.480525,-1.19413 0.904672,-0.54397 1.667317,-1.0132 2.778942,-1.25309 1.138708,-0.24574 2.849944,-0.1086 3.71836,0.0385 0.452654,0.0767 0.739631,0.23715 0.939016,0.35017 0.199408,0.11289 0.276317,0.15797 0.421174,0.13077 0.285606,-0.0538 0.462065,0.008 0.480538,0.003 0.0092,-0.003 0.01177,0.006 0.05897,-0.065 0.04716,-0.0713 0.119782,-0.22061 0.207377,-0.4661 0.120864,-0.3385 0.0032,-1.16903 -0.251099,-2.0846 -0.254318,-0.91557 -0.608192,-1.92387 -0.784586,-2.80061 -0.166287,-0.8265 -0.419335,-1.79417 -0.632964,-2.70192 -0.213628,-0.90776 -0.388953,-1.74505 -0.385072,-2.38866 0.0034,-0.58902 0.07116,-0.91472 0.144001,-1.12112 z m -6.119851,2.04891 2.943802,0.80384 c 2.899144,0.79167 2.937173,0.80895 2.521024,1.15281 -0.232382,0.19203 -1.335291,1.1388 -2.450828,2.10386 -1.115554,0.96508 -2.062832,1.75744 -2.105065,1.76091 -0.0423,0.003 -1.372008,-0.34894 -2.955033,-0.78299 -2.552815,-0.69994 -2.846949,-0.82295 -2.600044,-1.08943 0.153107,-0.16526 1.26133,-1.12138 2.46246,-2.12472 z m -9.60837,0.016 c -4.176033,0.32319 -8.352409,0.80706 -12.527703,1.04291 -0.02098,0.001 -0.042,0.002 -0.06298,0.004 -2.46e-4,4e-4 -5.55e-4,8e-4 -8.02e-4,0.001 -0.136434,0.22342 -0.272931,0.51554 -0.290008,0.59365 -0.06833,0.31218 -0.03004,0.45245 0.06137,0.82831 0.03193,0.13131 0.127115,0.3226 0.233851,0.52627 0.106737,0.20366 0.226206,0.41916 0.302042,0.65382 0.131374,0.4065 0.200359,0.77236 0.239868,1.13998 0.03858,0.35951 0.04434,0.59923 0.01003,1.07098 -0.03782,0.51976 -0.213368,1.30565 -0.277172,1.77815 -0.06981,0.51693 -0.13488,0.80248 -0.137984,1.20536 -0.0027,0.39114 0.08237,0.85005 0.139187,1.33171 0.05891,0.49973 0.0194,0.77983 0.176091,1.3646 0.08091,0.302 0.219268,0.7591 0.379858,1.17849 0.16059,0.41939 0.365714,0.80207 0.479336,0.90893 0.0973,0.0915 0.161219,0.17064 0.198954,0.2154 0.04175,-0.01 0.164984,-0.0207 0.381463,-0.0533 0.215709,-0.0326 0.698082,-0.33 1.205358,-0.69393 0.507284,-0.36393 1.057997,-0.78082 1.569573,-1.01724 0.940759,-0.43474 1.733764,-0.81473 2.852748,-0.91976 1.146245,-0.10759 2.825342,0.24079 3.670627,0.49378 0.440592,0.13187 0.714097,0.32623 0.901311,0.46369 0.187237,0.13739 0.253627,0.19694 0.399112,0.18732 0.286802,-0.0191 0.457821,0.0609 0.476528,0.0578 0.0093,-0.002 0.0098,0.009 0.06257,-0.0566 0.05275,-0.0656 0.13851,-0.20406 0.246286,-0.43922 0.148598,-0.32432 0.100835,-1.17641 -0.0714,-2.12432 -0.172241,-0.94791 -0.426862,-1.99895 -0.525464,-2.89847 -0.09295,-0.848 -0.261983,-1.85023 -0.394699,-2.78536 -0.13274,-0.93513 -0.232831,-1.79465 -0.173684,-2.4388 0.10977,-1.19337 0.423872,-1.44007 0.475725,-1.61891 z m -28.238676,0.79381 c -0.145168,0.20333 -0.291335,0.45127 -0.318888,0.54191 -0.0964,0.31649 -0.06617,0.47384 -0.006,0.8608 0.04447,0.28601 0.321921,0.76982 0.432004,1.24788 0.09664,0.41978 0.136213,0.79484 0.145605,1.16444 0.0092,0.36274 -0.004,0.58801 -0.07581,1.05494 -0.07756,0.50538 -0.309967,1.27641 -0.412349,1.74807 -0.110059,0.50703 -0.203606,0.79001 -0.239467,1.20055 -0.03493,0.40102 0.01438,0.86938 0.03169,1.35537 0.01777,0.5013 -0.04212,0.78777 0.06659,1.39629 0.05593,0.31293 0.154953,0.79137 0.280381,1.23103 0.125428,0.43966 0.305317,0.85473 0.398711,0.96268 0.08732,0.10092 0.137124,0.17562 0.171277,0.22463 0.06376,-0.003 0.169183,-0.0122 0.332125,-0.0185 0.175494,-0.007 0.689953,-0.24642 1.220601,-0.55314 0.53064,-0.30673 1.108042,-0.66211 1.643379,-0.84435 0.965038,-0.32854 1.788209,-0.6242 2.91813,-0.60208 1.16752,0.0228 2.797648,0.56544 3.622091,0.91856 0.435959,0.18672 0.695827,0.42018 0.870024,0.57921 0.174197,0.15903 0.219998,0.20668 0.336538,0.21219 0.155863,0.007 0.280205,0.0525 0.359401,0.0818 0.05218,0.0193 0.08243,0.0267 0.09346,0.0297 0.0068,-0.006 0.01912,-0.0171 0.03971,-0.0385 0.05824,-0.0606 0.155472,-0.19491 0.281986,-0.41997 0.185732,-0.33038 0.204925,-1.19513 0.110709,-2.16644 -0.09423,-0.97131 -0.263087,-2.05781 -0.288003,-2.96386 -0.0237,-0.86267 -0.109373,-1.88268 -0.16526,-2.83349 -0.05581,-0.95081 -0.08681,-1.82361 0.02126,-2.44842 0.203589,-1.17727 0.526718,-1.36046 0.600473,-1.56115 -0.177157,0.002 -0.354422,0.002 -0.531481,0.002 -3.987452,-0.003 -7.964281,-0.17758 -11.938863,-0.36221 z m 43.032293,1.91494 c 6.74e-4,-5e-5 0.0013,5e-5 0.002,0 0.08328,-0.007 0.195126,0.37956 0.265139,0.92056 0.068,0.52544 0.203553,1.19283 0.301239,1.48293 0.154365,0.45834 0.137245,0.53745 -0.133171,0.60288 -0.282501,0.0683 -0.313668,0.004 -0.336938,-0.69634 -0.01413,-0.4244 -0.07517,-1.10985 -0.135578,-1.52304 -0.06054,-0.41318 -0.04473,-0.76725 0.0353,-0.78659 6.54e-4,-1.6e-4 0.0013,-3.6e-4 0.002,-4e-4 z m -1.36741,1.43239 c 0.11981,-0.008 0.183357,0.31398 0.354588,1.46769 l 0.237863,1.60447 -0.607292,0.49658 c -0.721045,0.58963 -3.475542,1.44716 -4.352527,1.35498 -1.389276,-0.14603 -1.383294,-0.13888 -1.644582,-1.8993 -0.128773,-0.86766 -0.204982,-1.5847 -0.169673,-1.59323 0.0354,-0.008 0.806848,0.18926 1.714377,0.43962 l 1.650198,0.45527 1.245068,-1.03328 c 0.684858,-0.56822 1.345046,-1.12235 1.466887,-1.23143 0.04061,-0.0364 0.07455,-0.0594 0.105093,-0.0614 z"
         transform="matrix(1.2883114,0,0,1.2883114,351.33849,-66.176463)" /><text
         xml:space="preserve"
         transform="matrix(0.16315228,0,0,0.1780271,324.43373,-25.188484)"
         id="text3-4-0"
         style="font-style:normal;font-variant:normal;font-weight:bold;font-stretch:normal;font-size:400px;font-family:'Adwaita Mono';-inkscape-font-specification:'Adwaita Mono, Bold';font-variant-ligatures:normal;font-variant-caps:normal;font-variant-numeric:normal;font-variant-east-asian:normal;writing-mode:lr-tb;direction:ltr;white-space:pre;shape-inside:url(#rect3-0-5);display:inline;fill:#241c1c"><tspan
           x="939.08008"
           y="721.27656"
           id="tspan2"><tspan
             style="fill:#f9f9f9"
             id="tspan1">scend</tspan></tspan></text><text
         xml:space="preserve"
         style="font-style:normal;font-variant:normal;font-weight:bold;font-stretch:normal;font-size:39.3323px;font-family:sans-serif;-inkscape-font-specification:'sans-serif, Bold';font-variant-ligatures:normal;font-variant-caps:normal;font-variant-numeric:normal;font-variant-east-asian:normal;writing-mode:lr-tb;direction:ltr;fill:#f9f9f9;stroke-width:0.10727"
         x="660.87256"
         y="53.260521"
         id="text4-0-9"
         transform="scale(1.0180287,0.98229057)"><tspan
           id="tspan4-5-3"
           style="font-style:normal;font-variant:normal;font-weight:bold;font-stretch:normal;font-size:39.3323px;font-family:sans-serif;-inkscape-font-specification:'sans-serif, Bold';font-variant-ligatures:normal;font-variant-caps:normal;font-variant-numeric:normal;font-variant-east-asian:normal;fill:#f9f9f9;stroke-width:0.10727"
           x="660.87256"
           y="53.260521">3</tspan></text><path
         id="path52"
         style="baseline-shift:baseline;display:inline;overflow:visible;vector-effect:none;fill:#003399;enable-background:accumulate;stop-color:#000000"
         d="m 378.69575,78.770903 c -0.15387,0.225762 -0.29435,0.461917 -0.3483,0.639237 -0.14364,0.472289 -0.0972,0.777836 -0.0196,1.276925 0.0776,0.499089 0.44409,1.118154 0.56276,1.633492 0.11866,0.515335 0.16619,0.967747 0.17776,1.424202 0.0116,0.456459 -0.002,0.702841 -0.093,1.294495 -0.0908,0.591654 -0.38972,1.590076 -0.52814,2.227771 -0.13843,0.637695 -0.26453,1.02507 -0.31419,1.594218 -0.0496,0.56916 0.0172,1.185665 0.0388,1.793172 0.0216,0.607508 -0.0569,1.023593 0.091,1.851566 0.14797,0.827965 0.52218,2.498679 0.96066,3.005502 0.43849,0.506814 0.10926,0.425543 0.94775,0.393774 0.83849,-0.03177 2.54914,-1.395177 3.79563,-1.819527 1.24649,-0.42435 2.24313,-0.782668 3.63079,-0.755509 1.38766,0.02715 3.50585,0.715299 4.52634,1.152384 1.02049,0.437086 1.12617,1.02297 1.68517,1.049548 0.559,0.02659 0.65867,0.579036 1.34203,-0.636653 0.68336,-1.215699 -0.11887,-4.54784 -0.18086,-6.803719 -0.062,-2.255879 -0.4441,-5.26916 -0.19121,-6.731372 0.25287,-1.462215 0.60247,-1.527127 0.75603,-1.946652 0.0223,-0.06085 0.0423,-0.115905 0.0599,-0.165364 -0.37068,0.0054 -0.74119,0.0085 -1.11156,0.0083 -5.27309,-0.0038 -10.53174,-0.241064 -15.78766,-0.485758 z" /><path
         id="path4"
         style="baseline-shift:baseline;display:inline;overflow:visible;fill:#cc0000;stroke-width:2;stroke-dasharray:none;enable-background:accumulate;stop-color:#000000"
         d="m 415.83457,77.784916 c -5.48566,0.416045 -10.97216,1.058586 -16.45688,1.368392 -0.16675,0.0094 -0.33348,0.01824 -0.50023,0.02687 -0.1333,0.237191 -0.25129,0.481799 -0.29042,0.660425 -0.10586,0.483452 -0.0352,0.780196 0.0827,1.265039 0.11793,0.484833 0.53518,1.055587 0.69557,1.551843 0.16038,0.496245 0.24463,0.938886 0.293,1.389062 0.0484,0.450164 0.0541,0.694838 0.0109,1.290361 -0.0433,0.595519 -0.26205,1.617463 -0.34933,2.263944 -0.0873,0.646469 -0.18316,1.044228 -0.18707,1.612822 -0.004,0.568602 0.11343,1.170434 0.18397,1.768884 0.0706,0.598445 0.0254,1.018917 0.2403,1.821078 0.21491,0.802156 0.72398,2.41238 1.20406,2.863908 0.48008,0.451531 0.14398,0.408045 0.98133,0.281636 0.83741,-0.126622 2.44109,-1.669102 3.65559,-2.230355 1.2145,-0.561252 2.18425,-1.028936 3.57653,-1.159619 1.39228,-0.130692 3.56962,0.309849 4.62711,0.626319 1.05747,0.316519 1.21038,0.88361 1.7725,0.846459 0.56212,-0.03718 0.70631,0.498172 1.29294,-0.781864 0.58662,-1.280057 -0.48585,-4.485371 -0.72967,-6.709668 -0.24381,-2.22429 -0.86883,-5.161272 -0.73329,-6.636287 0.13553,-1.475013 0.48039,-1.578869 0.60048,-2.011247 0.0106,-0.03823 0.0208,-0.07422 0.03,-0.108004 z" /><path
         id="path6"
         style="baseline-shift:baseline;display:inline;overflow:visible;fill:#006633;stroke-width:2;stroke-dasharray:none;enable-background:accumulate;stop-color:#000000"
         d="m 458.29296,70.711446 c -2.97188,0.622032 -11.00396,2.291393 -16.87546,3.399276 -0.0768,0.155755 -0.13793,0.31569 -0.15658,0.457853 -0.0643,0.490525 0.0328,0.775563 0.19275,1.240234 0.15998,0.464648 0.62697,0.977708 0.83044,1.448491 0.20343,0.470778 0.32561,0.897466 0.4129,1.336352 0.0873,0.438914 0.11446,0.680184 0.12247,1.273824 0.008,0.593636 -0.12289,1.63012 -0.15451,2.279448 -0.0317,0.649327 -0.0933,1.053683 -0.0481,1.615922 0.0452,0.56225 0.21463,1.142797 0.33693,1.725476 0.12233,0.582681 0.11343,1.003542 0.39791,1.769918 0.28448,0.766378 0.93336,2.295339 1.45314,2.68304 0.51979,0.387705 0.17896,0.385877 1.00666,0.159164 0.82776,-0.226972 2.30113,-1.946161 3.46904,-2.648418 1.16791,-0.702251 2.09882,-1.282299 3.48195,-1.580782 1.38313,-0.29849 3.60167,-0.128214 4.68809,0.05581 1.08642,0.184049 1.28819,0.725695 1.84795,0.620634 0.55977,-0.105103 0.75078,0.405853 1.22783,-0.930176 0.47703,-1.336049 -0.87332,-4.371723 -1.30948,-6.539652 -0.43617,-2.167914 -1.31585,-4.994036 -1.30741,-6.467823 0.007,-1.281492 0.26231,-1.557854 0.38344,-1.898592 z" /><path
         id="path8"
         style="baseline-shift:baseline;display:inline;overflow:visible;fill:#f9f9f9;stroke-width:2;stroke-dasharray:none;enable-background:accumulate;stop-color:#000000"
         d="m 436.09586,75.110144 c -5.39603,0.941988 -10.79799,1.836249 -16.20883,2.425692 -0.0921,0.01003 -0.18437,0.01965 -0.27647,0.02842 -0.15941,0.321859 -0.32781,0.707074 -0.36018,0.953947 -0.0643,0.490525 0.0323,0.775046 0.19223,1.239717 0.15998,0.464647 0.62698,0.977707 0.83045,1.448491 0.20343,0.470778 0.3256,0.897983 0.41289,1.336869 0.0873,0.438914 0.11497,0.680184 0.12299,1.273824 0.008,0.593637 -0.12341,1.629603 -0.15503,2.278931 -0.0317,0.649327 -0.0927,1.053682 -0.0475,1.615922 0.0452,0.56225 0.21411,1.142797 0.33641,1.725476 0.12233,0.58268 0.11342,1.003542 0.39791,1.769918 0.28448,0.766378 0.93336,2.29534 1.45314,2.68304 0.51978,0.387705 0.17948,0.385875 1.00718,0.159163 0.82776,-0.226973 2.30061,-1.946159 3.46852,-2.648417 1.16792,-0.70225 2.09884,-1.2823 3.48196,-1.580782 1.38313,-0.298491 3.60166,-0.128215 4.68808,0.05581 1.08642,0.184048 1.28871,0.725694 1.84847,0.620634 0.55977,-0.105104 0.75025,0.40637 1.22731,-0.929659 0.47703,-1.336049 -0.87331,-4.37224 -1.30948,-6.54017 -0.43616,-2.167913 -1.31585,-4.993518 -1.30741,-6.467305 0.004,-0.76635 0.0973,-1.173392 0.1974,-1.449524 z m -8.21293,2.649967 3.79201,1.035079 c 3.735,1.01992 3.784,1.042698 3.24787,1.485698 -0.29938,0.2474 -1.72027,1.467129 -3.15743,2.710429 -1.43718,1.24332 -2.65757,2.264125 -2.71198,2.268595 -0.0545,0.004 -1.76758,-0.449534 -3.80701,-1.008724 -3.28882,-0.90175 -3.66723,-1.060222 -3.34914,-1.403532 0.19725,-0.2129 1.62446,-1.44468 3.17189,-2.7373 z m 6.68279,3.509864 c 0.002,-1.83e-4 0.003,-1.05e-4 0.005,0 0.10672,0.0065 0.24765,0.500577 0.33641,1.186491 0.0876,0.67693 0.26224,1.536727 0.38809,1.910477 0.19887,0.59048 0.1763,0.69188 -0.17208,0.77618 -0.36395,0.088 -0.4041,0.005 -0.43408,-0.897102 -0.0182,-0.54676 -0.0968,-1.429318 -0.17467,-1.961638 -0.078,-0.5323 -0.0571,-0.988455 0.046,-1.013375 0.002,-4.07e-4 0.003,-8.51e-4 0.005,-10e-4 z m -1.7632,1.845365 c 0.003,-1.32e-4 0.005,-1.22e-4 0.008,0 0.14861,0.007 0.23125,0.434162 0.44752,1.891358 l 0.30696,2.067057 -0.7829,0.639754 c -0.92893,0.75962 -4.47758,1.86439 -5.60741,1.74563 -1.78982,-0.18813 -1.78159,-0.178919 -2.11821,-2.446879 -0.1659,-1.11782 -0.2646,-2.041588 -0.21911,-2.052588 0.0456,-0.0106 1.03947,0.243834 2.20865,0.566374 l 2.12597,0.586527 1.60403,-1.331185 c 0.88231,-0.73204 1.73284,-1.445936 1.88981,-1.586466 0.0528,-0.04729 0.0973,-0.0776 0.13694,-0.07958 z" /><path
         style="fill:#ffffff;stroke-width:2;stroke-dasharray:none"
         d="m 403.59897,88.663588 -1.98916,-1.21835 -0.16655,-1.082035 -0.16655,-1.082035 1.62252,-1.284286 c 0.89238,-0.706362 1.76355,-1.387525 1.93592,-1.513698 0.27059,-0.198072 0.33106,-0.102195 0.44268,0.702068 0.12688,0.91397 0.10602,0.949861 -1.10912,1.910814 -0.68112,0.538643 -1.22245,1.056764 -1.20294,1.151381 0.0195,0.09461 0.63345,0.541909 1.36434,0.993982 1.19808,0.74106 1.33579,0.89834 1.39902,1.597912 0.0386,0.426779 0.0226,0.835939 -0.0354,0.909264 -0.058,0.07329 -1.00068,-0.414938 -2.09471,-1.085027 z"
         id="path897-9" /><path
         style="fill:#ffffff;stroke-width:2;stroke-dasharray:none"
         d="m 410.4953,89.03071 c -0.20606,-1.021622 -0.10108,-1.204613 1.27342,-2.218562 1.40993,-1.040087 1.40794,-1.04989 -0.43134,-2.125646 -1.04968,-0.614087 -1.12765,-0.714301 -1.19187,-1.531957 -0.0378,-0.481179 -0.0407,-0.93413 -0.006,-1.006524 0.0342,-0.07245 1.00029,0.466486 2.14683,1.197523 2.06921,1.319335 2.08505,1.335946 2.14428,2.248118 0.0328,0.505419 0.0427,1.001048 0.022,1.101376 -0.0207,0.100297 -0.79199,0.747015 -1.71394,1.437075 -0.92195,0.690061 -1.77204,1.332198 -1.88908,1.426975 -0.13919,0.112682 -0.2617,-0.07004 -0.35416,-0.528299 z"
         id="path896-2" /><path
         style="fill:#ffffff;stroke-width:2;stroke-dasharray:none"
         d="m 406.55597,91.30578 c -0.28099,-0.02373 -0.21285,-0.748994 0.40034,-4.259225 1.15289,-6.599928 1.0927,-6.370785 1.74038,-6.625991 0.33446,-0.13179 0.59414,-0.110762 0.62746,0.05089 0.0312,0.151652 -0.35831,2.634883 -0.86569,5.518276 -0.92968,5.283266 -0.96964,5.394923 -1.90249,5.31605 z"
         id="path895-0" /><path
         style="fill:#ffffff;stroke-width:2;stroke-dasharray:none"
         d="m 450.1759,84.271511 c -0.1647,-0.595819 -0.26715,-0.688275 -0.78477,-0.708238 -0.44524,-0.01714 -0.63888,-0.130439 -0.76788,-0.449574 -0.16058,-0.397087 -0.21469,-0.414184 -0.78099,-0.246652 -0.33463,0.09907 -0.72176,0.111832 -0.86028,0.02845 -0.42518,-0.255866 -0.18042,-0.708823 0.49022,-0.907248 0.35039,-0.103696 0.60113,-0.278659 0.55714,-0.38889 -0.0474,-0.119152 -0.33307,-0.125559 -0.7044,-0.01561 -0.6974,0.20632 -0.98679,0.05953 -0.892,-0.452368 0.0378,-0.204595 0.31769,-0.395378 0.6944,-0.473397 0.39768,-0.08244 0.57584,-0.209088 0.48189,-0.342717 -0.094,-0.133638 -0.30808,-0.162541 -0.5792,-0.07817 -0.59549,0.185273 -0.97986,0.08612 -1.04844,-0.270507 -0.0391,-0.203232 0.18939,-0.37384 0.70108,-0.523444 0.91233,-0.266742 0.67478,-0.65692 -0.2796,-0.45923 -0.51924,0.107459 -0.64693,0.07905 -0.74827,-0.167287 -0.1958,-0.475669 -0.11514,-0.57603 0.6166,-0.767394 0.58481,-0.152933 0.69418,-0.264676 0.71008,-0.72554 0.014,-0.406322 0.1316,-0.579878 0.46263,-0.682857 0.42332,-0.131713 0.43461,-0.167484 0.24493,-0.775547 -0.18296,-0.586493 -0.16897,-0.657292 0.17486,-0.88547 0.4037,-0.267861 0.43675,-0.235562 0.86789,0.848217 0.22145,0.556688 0.47308,0.294599 0.31321,-0.326233 -0.0742,-0.288411 -0.0586,-0.647402 0.0347,-0.797757 0.2741,-0.441417 0.7008,-0.221941 0.84538,0.434844 0.0738,0.334852 0.19556,0.620105 0.27076,0.633906 0.32638,0.05978 0.40829,-0.20818 0.2342,-0.766399 -0.33575,-1.076256 0.4204,-1.265903 0.81881,-0.205359 0.30417,0.809742 0.69962,0.690253 0.44256,-0.133728 -0.21393,-0.685756 -0.0661,-0.96905 0.45601,-0.873262 0.20602,0.03773 0.40362,0.310235 0.48144,0.663744 0.11096,0.503999 0.21673,0.598546 0.66347,0.5931 0.37968,-0.0045 0.61433,0.124925 0.82157,0.453378 0.27108,0.429785 0.32411,0.445937 0.80972,0.246706 0.28581,-0.117267 0.63375,-0.144531 0.7732,-0.0607 0.42669,0.256786 0.18318,0.709532 -0.48853,0.908242 -0.35041,0.103697 -0.60112,0.278689 -0.55716,0.388911 0.0472,0.118539 0.34772,0.121183 0.73553,0.0064 0.61567,-0.182176 0.66752,-0.169777 0.85147,0.203387 0.20836,0.422657 0.1898,0.441279 -0.82296,0.825022 -0.5659,0.214404 -0.29755,0.462851 0.33399,0.309237 0.2934,-0.0713 0.65917,-0.05404 0.81284,0.03845 0.45111,0.27149 0.22983,0.689184 -0.43841,0.827598 -0.72082,0.149301 -0.91729,0.529918 -0.23221,0.449862 0.85081,-0.09938 1.22396,0.0149 1.23133,0.377161 0.005,0.247164 -0.18235,0.385964 -0.62565,0.463416 -0.51013,0.08915 -0.6528,0.218349 -0.73579,0.666535 -0.0566,0.305789 -0.27501,0.685029 -0.48536,0.842723 -0.31389,0.235345 -0.35846,0.379891 -0.2486,0.806525 0.19485,0.756713 0.0836,1.0765 -0.34663,0.997517 -0.22797,-0.04181 -0.4571,-0.319409 -0.57461,-0.696033 -0.1075,-0.344566 -0.28708,-0.591626 -0.39913,-0.549073 -0.12149,0.04623 -0.12851,0.318646 -0.0173,0.675146 0.24597,0.788446 0.20068,0.943642 -0.28519,0.977483 -0.31369,0.02184 -0.45842,-0.139738 -0.63333,-0.706885 -0.13614,-0.441486 -0.29544,-0.660659 -0.39873,-0.548616 -0.0947,0.102674 -0.0853,0.46463 0.0205,0.804461 0.18028,0.577937 0.16631,0.626073 -0.21605,0.74503 -0.56085,0.174496 -0.56242,0.173387 -0.71352,-0.512949 -0.0738,-0.334862 -0.25178,-0.630439 -0.39569,-0.656844 -0.20882,-0.03834 -0.22089,0.09943 -0.06,0.682135 0.17546,0.634716 0.1609,0.746176 -0.11141,0.852892 -0.46981,0.184063 -0.51538,0.146364 -0.72075,-0.596556 z"
         id="path893-3" /><path
         style="fill:#006633;fill-opacity:1;stroke-width:2;stroke-dasharray:none"
         d="m 452.14128,81.783732 c 1.29404,-0.359304 2.42227,-0.699957 2.50716,-0.757034 0.1403,-0.09437 -1.03758,-4.389929 -1.3214,-4.818984 -0.11074,-0.167453 -5.1814,1.137906 -5.2195,1.343682 -0.0452,0.244421 1.4013,4.834251 1.53108,4.85806 0.0824,0.01519 1.20862,-0.26644 2.50266,-0.625724 z"
         id="path892-7" /><path
         style="fill:#000000;stroke-width:20.5079;stroke-dasharray:none;filter:url(#filter933-5)"
         d="m 635.11312,364.63213 c 4.73133,-2.65833 10.17838,-7.48242 12.84765,-11.37828 1.81258,-2.64551 3.55526,-6.34423 4.3299,-9.18992 0.5454,-2.00355 0.6106,-2.81195 0.5975,-7.40833 -0.0134,-4.71362 -0.0747,-5.38114 -0.70907,-7.72609 -0.85975,-3.178 -2.06214,-6.20682 -4.72815,-11.91021 -3.60979,-7.72239 -4.5496,-11.18773 -4.54104,-16.74391 0.007,-4.55288 1.04548,-8.50662 2.85866,-10.88383 l 0.65355,-0.85685 c -15.31641,1.11897 -32.38045,7.61172 -44.71602,17.26408 -3.52639,3.01779 -7.30476,8.33341 -10.81736,15.21847 -1.20596,2.36381 0.16227,6.39586 3.05532,9.00663 13.13832,11.85641 26.2712,23.71879 39.51204,35.46086 0.0728,0.002 0.81847,-0.38141 1.65713,-0.85262 z"
         id="path931-2"
         transform="matrix(0.09752352,0,0,0.09752352,326.95286,53.321766)" /><path
         style="fill:#000000;stroke-width:20.5079;stroke-dasharray:none;filter:url(#filter933-5)"
         d="m 629.42314,369.62008 c 0.4358,-0.47764 0.77183,-0.85932 1.02181,-1.16594 0.45144,-0.55374 0.0614,-1.59981 -0.50639,-2.11162 -2.85445,-2.573 -11.30802,-10.1832 -21.12295,-19.0152 l -21.1396,-19.02252 a 0.93083315,0.93083315 177.23672 0 0 -1.30902,0.0632 l -1.28196,1.39946 c -1.33262,1.45476 -3.91073,4.34127 -4.18617,4.62236 -0.90109,0.91957 44.18007,39.82553 44.32827,39.8378 0.0974,0.008 3.16881,-3.48171 4.19601,-4.60752 z"
         id="path929-8"
         transform="matrix(0.09752352,0,0,0.09752352,326.95286,53.321766)" /><path
         style="fill:#000000;stroke-width:20.5079;stroke-dasharray:none;filter:url(#filter933-5)"
         d="m 573.08543,402.6086 c 7.02627,-2.31955 13.2891,-8.19791 16.47483,-15.46347 0.38284,-0.87312 1.25109,-3.43297 1.92943,-5.68854 1.90117,-6.32158 3.15645,-8.22048 6.44354,-9.74727 3.72059,-1.72814 8.91848,-0.26013 15.9862,4.51489 3.12734,2.11286 5.29227,2.56334 7.46118,1.55252 1.00164,-0.46681 4.07041,-3.32631 3.82095,-3.56039 -0.0642,-0.0603 -10.05164,-9.05664 -22.19424,-19.99192 l -22.07746,-19.88233 -1.01091,1.13381 c -1.48458,1.66506 -2.0623,2.89775 -2.0623,4.40035 0,1.78802 0.89492,3.35547 3.96875,6.95125 3.55673,4.16069 4.65347,5.66109 5.68779,7.78119 2.62879,5.38843 2.21936,10.62159 -1.09396,13.98239 -1.22437,1.2419 -1.71989,1.51397 -8.89139,4.8818 -8.19547,3.8487 -13.01658,9.47319 -15.06565,17.57616 -0.42046,1.6627 -0.51469,2.7296 -0.43538,4.92984 0.0901,2.50094 0.18573,2.96191 0.87442,4.21645 1.32083,2.4061 3.1959,3.30188 6.48875,3.09987 1.09141,-0.0669 2.75436,-0.37593 3.69545,-0.6866 z"
         id="path928-9"
         transform="matrix(0.09752352,0,0,0.09752352,326.95286,53.321766)" /><path
         style="fill:#000000;stroke-width:20.5079;stroke-dasharray:none;filter:url(#filter933-5)"
         d="m 572.39782,394.92702 c -0.45574,-0.1321 -1.25941,-0.71702 -1.78594,-1.29982 -0.84866,-0.93937 -0.95731,-1.22027 -0.95731,-2.47495 0,-3.25799 3.14258,-5.13526 5.92558,-3.53975 3.04497,1.74571 2.51713,6.1661 -0.87184,7.30119 -1.02402,0.34298 -1.17027,0.34383 -2.31049,0.0133 z"
         id="path927-7"
         transform="matrix(0.09752352,0,0,0.09752352,326.95286,53.321766)" /></g></g></svg>
