<svg xmlns="http://www.w3.org/2000/svg" viewBox="-10 -10 128.24219 105.314919">
  <rect x="-10" y="-10" width="128.24219" height="105.314919" rx="12" fill="#ffffff"/>
  <g transform="translate(-18.150616,-137.80317)">
    <path
      style="font-weight:bold;font-size:333.333px;fill:#000000;stroke-width:0.308937"
      d="m 79.026024,131.62198 h 14.114903 a 2.2832451,2.2832451 121.31217 0 0 2.027546,-3.33313 L 64.562759,69.18299 a 6.8294169,6.8294169 31.312171 0 0 -6.064596,-3.689097 8.5557333,8.5557333 150.77939 0 0 -7.27833,4.071158 L 39.862469,87.979612 a 11.545221,11.545221 135.28092 0 1 -3.862575,3.824883 l -0.730165,0.440513 a 25.292399,25.292399 133.70826 0 0 -9.157908,9.580442 L 11.679028,128.386 a 2.2539887,2.2539887 59.139358 0 0 1.989946,3.33015 l 22.426522,-0.0942 h 12.04811 z M 70.179166,106.66561 58.39421,94.055135 a 2.8008392,2.8008392 25.846974 0 0 -1.814122,-0.878816 l -6.73342,-0.560196 A 1.6157211,1.6157211 62.067142 0 1 48.57269,90.213331 l 8.979457,-15.950003 a 1.5232947,1.5232947 1.182432 0 1 2.684498,0.05541 l 11.781247,23.108468 a 0.48508504,0.48508504 134.83046 0 1 -0.649927,0.653784 l -3.937171,-1.977994 a 0.53958684,0.53958684 136.81382 0 0 -0.738751,0.693399 l 4.044456,9.506526 a 0.33761378,0.33761378 146.94563 0 1 -0.557333,0.36269 z"
      aria-label="A"
      transform="matrix(1.2883114,0,0,1.2883114,3.4567513,53.426651)" />
    <g transform="matrix(1.9381373,0.63532988,-0.66463763,2.3480584,17.738252,-22.013903)">
      <g transform="matrix(1.8062213,0,0,1.8062213,-58.664588,-58.050114)">
        <path style="fill:#0000ff;stroke-width:0.264583"
          d="m 52.665026,79.12071 c 0,0 -0.131369,0.245238 -0.133987,0.357301 -0.0026,0.112063 0.03212,0.174714 0.08933,0.276913 0.05721,0.102199 0.198826,0.209841 0.267978,0.31264 0.06915,0.102799 0.115052,0.197106 0.151852,0.294775 0.0368,0.09767 0.05142,0.15176 0.07146,0.285842 0.02004,0.134082 0.0158,0.370708 0.0268,0.518092 0.011,0.147384 0.0066,0.23992 0.03573,0.366236 0.02914,0.126316 0.09233,0.254547 0.14292,0.384101 0.05059,0.129554 0.06084,0.224854 0.160787,0.393036 0.09994,0.168182 0.321306,0.502275 0.473427,0.580617 0.152121,0.07834 0.06008,0.08402 0.276911,0.01786 0.216833,-0.06616 0.563093,-0.481288 0.85753,-0.661012 0.294437,-0.179724 0.528514,-0.327544 0.89326,-0.419832 0.364746,-0.09229 0.969329,-0.09359 1.268428,-0.07146 0.299099,0.02213 0.369999,0.140994 0.518089,0.107191 0.14809,-0.0338 0.215029,0.07839 0.30371,-0.232249 0.08868,-0.310641 -0.36761,-0.972892 -0.550731,-1.455251 -0.183121,-0.482359 -0.505891,-1.105527 -0.547978,-1.43891 -0.04209,-0.333383 0.04449,-0.372046 0.05359,-0.473427 0.0091,-0.101381 0.0089,-0.133987 0.0089,-0.133987 z" />
        <path style="fill:#ff0000;stroke-width:0.264583"
          d="m 57.952733,77.770926 c 0,0 -0.107368,0.256654 -0.09928,0.368456 0.0081,0.1118 0.04865,0.170852 0.115347,0.267125 0.0667,0.09627 0.217942,0.189911 0.296588,0.285642 0.07864,0.09573 0.133336,0.185228 0.179288,0.27894 0.04595,0.09371 0.06567,0.146161 0.09841,0.277719 0.03274,0.131557 0.0511,0.367508 0.07612,0.51317 0.02501,0.145662 0.02946,0.238195 0.07051,0.361155 0.04106,0.122959 0.116199,0.244575 0.17892,0.368711 0.06272,0.124135 0.08202,0.218022 0.197559,0.375899 0.115532,0.157878 0.367768,0.469323 0.526671,0.532792 0.158902,0.06347 0.06782,0.0779 0.277351,-0.0086 0.209531,-0.08655 0.514598,-0.532824 0.790541,-0.739824 0.275944,-0.207 0.494847,-0.376482 0.849122,-0.503154 0.354275,-0.126674 0.955975,-0.18566 1.255821,-0.192172 0.299846,-0.0065 0.381765,0.105044 0.525954,0.05727 0.144189,-0.04778 0.221528,0.05751 0.280162,-0.260171 0.05863,-0.317685 -0.458769,-0.933374 -0.687083,-1.396058 -0.228313,-0.462683 -0.609075,-1.052208 -0.682783,-1.380054 -0.07371,-0.327845 0.0088,-0.374593 0.0082,-0.47638 -6.16e-4,-0.101787 -0.0039,-0.134225 -0.0039,-0.134225 z" />
        <path style="fill:#008000;stroke-width:0.264583"
          d="m 68.679615,73.606916 c 0,0 -0.08057,0.266287 -0.06109,0.376676 0.01949,0.110386 0.06587,0.164982 0.142053,0.253932 0.0762,0.08894 0.236218,0.166633 0.32424,0.253821 0.08801,0.08719 0.151575,0.170624 0.206867,0.259147 0.05529,0.08853 0.08027,0.138681 0.126289,0.266202 0.04602,0.12752 0.08841,0.360358 0.128189,0.502698 0.03977,0.142342 0.05366,0.233935 0.107068,0.352053 0.05342,0.118117 0.140596,0.231414 0.215681,0.348486 0.07509,0.117071 0.103886,0.208493 0.234956,0.35373 0.131069,0.145238 0.413826,0.429262 0.578385,0.476151 0.164559,0.04689 0.07543,0.07055 0.275019,-0.03691 0.199584,-0.10752 0.457424,-0.582646 0.710756,-0.816775 0.253334,-0.234128 0.453762,-0.425103 0.793228,-0.587333 0.339467,-0.162232 0.931983,-0.282428 1.229592,-0.319563 0.29761,-0.03713 0.390505,0.06546 0.529054,0.0032 0.138548,-0.06227 0.226246,0.03456 0.252093,-0.287452 0.02584,-0.322015 -0.551795,-0.881577 -0.82622,-1.318494 -0.274422,-0.436914 -0.713463,-0.98442 -0.820305,-1.303011 -0.106843,-0.318591 -0.02954,-0.37353 -0.04055,-0.474723 -0.011,-0.101191 -0.01761,-0.133122 -0.01761,-0.133122 z" />
        <path style="fill:#f9f9f9;stroke-width:0.264583"
          d="m 63.218152,76.015871 c 0,0 -0.08057,0.266287 -0.06109,0.376676 0.01949,0.110386 0.06587,0.164982 0.142053,0.253932 0.0762,0.08894 0.236218,0.166633 0.32424,0.253821 0.08801,0.08719 0.151575,0.170624 0.206867,0.259147 0.05529,0.08853 0.08027,0.138681 0.126289,0.266202 0.04602,0.12752 0.08841,0.360358 0.128189,0.502698 0.03977,0.142342 0.05366,0.233935 0.107068,0.352053 0.05342,0.118117 0.140596,0.231414 0.215681,0.348486 0.07509,0.117071 0.103886,0.208493 0.234956,0.35373 0.131069,0.145238 0.413826,0.429262 0.578385,0.476151 0.164559,0.04689 0.07543,0.07055 0.275019,-0.03691 0.199584,-0.10752 0.457424,-0.582646 0.710756,-0.816775 0.253334,-0.234128 0.453762,-0.425103 0.793228,-0.587333 0.339467,-0.162232 0.931983,-0.282428 1.229592,-0.319563 0.29761,-0.03713 0.390505,0.06546 0.529054,0.0032 0.138548,-0.06227 0.226246,0.03456 0.252093,-0.287452 0.02584,-0.322015 -0.551795,-0.881577 -0.82622,-1.318494 -0.274422,-0.436914 -0.713463,-0.98442 -0.820305,-1.303011 -0.106843,-0.318591 -0.02954,-0.37353 -0.04055,-0.474723 -0.011,-0.101191 -0.01761,-0.133122 -0.01761,-0.133122 z" />
        <path style="fill:#ffffff;stroke-width:0.264583"
          d="m 51.44281,79.303569 c 0,0 0.83436,-0.17566 1.250561,-0.267977 0.650155,-0.144211 1.301789,-0.28291 1.947307,-0.44663 1.249223,-0.316835 2.494231,-0.653533 3.724891,-1.03618 1.371223,-0.426352 2.73064,-0.893115 4.073263,-1.402419 1.546384,-0.586598 3.055172,-1.267884 4.582419,-1.902642 1.188212,-0.493847 2.393219,-0.949188 3.564107,-1.48281 0.773845,-0.352673 2.284955,-1.134864 2.284955,-1.134864 l 0.06936,0.215459 c 0,0 -3.418422,1.617111 -5.150219,2.375418 -1.544404,0.676253 -3.091552,1.350593 -4.671748,1.938372 -0.311525,0.115877 -0.63204,0.206024 -0.946854,0.312642 -1.435944,0.486311 -2.853638,1.026603 -4.296579,1.491742 -0.416934,0.134401 -0.836568,0.261011 -1.259493,0.375168 -1.452317,0.392015 -2.9196,0.727052 -4.385906,1.06298 -0.26129,0.05986 -0.786066,0.169719 -0.786066,0.169719 z" />
      </g>
    </g>
  </g>
</svg>
